<?xml version="1.0" encoding="utf-8"?>
<!-- Generator: Adobe Illustrator 24.1.1, SVG Export Plug-In . SVG Version: 6.00 Build 0)  -->
<svg version="1.1" id="Camada_1" xmlns="http://www.w3.org/2000/svg" xmlns:xlink="http://www.w3.org/1999/xlink" x="0px" y="0px"
	 viewBox="0 0 908.34 263.68" style="enable-background:new 0 0 908.34 263.68;" xml:space="preserve">
<style type="text/css">
	.st0{fill:#4D4D4D;}
	.st1{fill:#E12F11;}
	.st2{fill:#D02C06;}
	.st3{fill:#BD120A;}
	.st4{fill:#93BF34;}
	.st5{fill:#558C0C;}
	.st6{fill:#75A630;}
</style>
<g>
	<g>
		<path class="st0" d="M370.3,165.05V92.73h29.31c10.7,0,18.64,2.83,23.81,8.48c5.16,5.65,7.75,15.03,7.75,28.13
			c0,12.35-2.55,21.39-7.64,27.12c-5.09,5.73-13.07,8.59-23.92,8.59H370.3z M382.54,155.62h15.16c4.72,0,8.65-0.69,11.79-2.08
			c3.15-1.38,5.5-3.99,7.08-7.8c1.57-3.82,2.36-9.28,2.36-16.4c0-7.11-0.71-12.62-2.13-16.51c-1.43-3.89-3.69-6.63-6.8-8.2
			c-3.11-1.57-7.2-2.36-12.3-2.36h-15.16V155.62z"/>
		<path class="st0" d="M441.39,165.05v-43.91h-8.09l1.12-9.32h19.21v53.23H441.39z M440.38,100.7V90.6h13.36v10.11H440.38z"/>
		<path class="st0" d="M484.96,184.82c-3.97,0-7.94-0.24-11.91-0.73c-3.97-0.49-7.34-1.22-10.11-2.19v-9.43
			c2.99,0.97,6.44,1.72,10.33,2.25c3.89,0.52,7.6,0.79,11.12,0.79c5.39,0,9.32-0.3,11.79-0.9c2.47-0.6,3.71-1.95,3.71-4.04
			c0-1.57-0.6-2.68-1.8-3.31c-1.2-0.64-3.48-0.96-6.85-0.96h-14.38c-9.66,0-14.49-3.4-14.49-10.22c0-2.17,0.64-4.19,1.91-6.06
			c1.27-1.87,3.3-3.3,6.06-4.27c-3.07-1.49-5.33-3.55-6.79-6.18c-1.46-2.62-2.19-5.76-2.19-9.43c0-6.81,2.04-11.75,6.12-14.82
			c4.08-3.07,10.2-4.61,18.36-4.61c1.72,0,3.52,0.13,5.39,0.39c1.87,0.26,3.33,0.51,4.38,0.73h19.54l-0.34,7.97h-8.98
			c1.42,1.2,2.47,2.7,3.15,4.49c0.67,1.8,1.01,3.75,1.01,5.84c0,5.69-1.72,10.16-5.17,13.42c-3.44,3.26-8.64,4.89-15.61,4.89
			c-1.2,0-2.3-0.06-3.31-0.17c-1.01-0.11-2.11-0.24-3.31-0.39c-2.25,0.23-4.26,0.82-6.06,1.8c-1.8,0.97-2.69,2.28-2.69,3.93
			c0,1.12,0.45,1.93,1.35,2.41c0.9,0.49,2.4,0.73,4.49,0.73h14.94c5.32,0,9.41,1.14,12.3,3.42c2.88,2.29,4.32,5.6,4.32,9.94
			c0,5.24-2.27,9-6.79,11.29C499.91,183.68,493.42,184.82,484.96,184.82z M485.85,140.68c4.87,0,8.25-0.82,10.17-2.47
			c1.91-1.65,2.86-4.45,2.86-8.42s-0.96-6.85-2.86-8.65c-1.91-1.8-5.3-2.7-10.17-2.7c-4.57,0-7.9,0.86-9.99,2.58
			c-2.09,1.72-3.14,4.64-3.14,8.76c0,3.82,0.99,6.59,2.97,8.31C477.68,139.82,481.06,140.68,485.85,140.68z"/>
		<path class="st0" d="M528.31,165.05v-43.91h-8.09l1.12-9.32h19.21v53.23H528.31z M527.3,100.7V90.6h13.36v10.11H527.3z"/>
		<path class="st0" d="M572.89,166.18c-5.69,0-9.94-1.51-12.75-4.55c-2.81-3.03-4.21-7.17-4.21-12.41v-27.85h-7.86v-9.54h7.86V99.58
			l12.13-3.71v15.95h14.15l-0.78,9.54h-13.36v27.18c0,3.07,0.71,5.22,2.13,6.46c1.42,1.23,3.74,1.85,6.96,1.85
			c2.02,0,4.16-0.37,6.4-1.12v8.65C580.64,165.58,577.08,166.18,572.89,166.18z"/>
		<path class="st0" d="M607.26,166.18c-3.37,0-6.5-0.6-9.38-1.8c-2.88-1.2-5.18-3.01-6.91-5.45c-1.72-2.43-2.58-5.45-2.58-9.04
			c0-5.09,1.74-9.19,5.22-12.3c3.48-3.11,8.85-4.66,16.12-4.66h17.07v-2.36c0-2.54-0.39-4.57-1.18-6.06
			c-0.79-1.5-2.21-2.58-4.27-3.26c-2.06-0.67-5.07-1.01-9.04-1.01c-6.29,0-12.17,0.94-17.63,2.81v-9.1c2.4-0.97,5.32-1.76,8.76-2.36
			c3.44-0.6,7.15-0.9,11.12-0.9c7.78,0,13.72,1.57,17.8,4.72s6.12,8.27,6.12,15.38v34.25h-10.45l-0.78-5.39
			c-2.18,2.1-4.85,3.71-8.03,4.83C616.03,165.61,612.05,166.18,607.26,166.18z M610.51,157.42c3.67,0,6.86-0.62,9.6-1.85
			c2.73-1.24,4.96-2.9,6.68-5v-9.32h-16.84c-3.6,0-6.2,0.69-7.8,2.08c-1.61,1.39-2.42,3.5-2.42,6.35c0,2.77,0.94,4.75,2.81,5.95
			C604.41,156.82,607.07,157.42,610.51,157.42z"/>
		<path class="st0" d="M660.83,166.18c-4.35,0-7.64-1.07-9.88-3.2c-2.25-2.13-3.37-5.67-3.37-10.61v-63h12.24v61.88
			c0,2.1,0.37,3.52,1.12,4.27s1.87,1.12,3.37,1.12c1.8,0,3.52-0.23,5.16-0.68v8.87c-1.42,0.52-2.79,0.88-4.1,1.07
			S662.55,166.18,660.83,166.18z"/>
		<path class="st0" d="M681.26,165.05V92.73h10.78l37.73,53.23V92.73h12.13v72.32h-10.78l-37.62-53.12v53.12H681.26z"/>
		<path class="st0" d="M773.12,166.18c-6.36,0-11.25-1.76-14.65-5.28c-3.41-3.52-5.11-8.68-5.11-15.5v-33.58h12.24v33.58
			c0,3.97,0.97,6.89,2.92,8.76c1.95,1.87,4.94,2.81,8.98,2.81c2.99,0,5.77-0.56,8.31-1.68c2.54-1.12,4.75-2.62,6.63-4.49v-38.97
			h12.13v53.23h-11.12l-0.56-5.5c-2.4,1.87-5.24,3.44-8.53,4.72C781.06,165.54,777.32,166.18,773.12,166.18z"/>
		<path class="st0" d="M834.67,166.18c-5.69,0-9.94-1.51-12.75-4.55c-2.81-3.03-4.21-7.17-4.21-12.41v-27.85h-7.86v-9.54h7.86V99.58
			l12.13-3.71v15.95h14.15l-0.78,9.54h-13.36v27.18c0,3.07,0.71,5.22,2.13,6.46c1.42,1.23,3.74,1.85,6.96,1.85
			c2.02,0,4.16-0.37,6.4-1.12v8.65C842.42,165.58,838.86,166.18,834.67,166.18z"/>
		<path class="st0" d="M852.41,165.05v-53.23h11.23l0.67,6.18c2.54-1.64,5.58-3.14,9.1-4.49c3.52-1.35,7-2.28,10.44-2.81v9.32
			c-2.09,0.37-4.36,0.92-6.79,1.63c-2.43,0.71-4.73,1.5-6.9,2.36c-2.18,0.86-4.01,1.74-5.5,2.64v38.41H852.41z"/>
		<path class="st0" d="M895.99,165.05v-43.91h-8.09l1.12-9.32h19.21v53.23H895.99z M894.98,100.7V90.6h13.36v10.11H894.98z"/>
	</g>
	<g>
		<path class="st1" d="M69.57,50.13c0,0-17.58,18.35-6.88,22.93c0,0,5.35,1.53,22.17-9.17c0,0,74.15-44.34,139.9-16.82
			c0,0,69.18,23.32,35.55,106.64c0,0-16.05,44.34-80.27,47.4c0,0-46.63,6.88-55.81-16.05c0,0-24.46-51.22-7.64-79.5
			c0,0,17.58-22.17,36.69-12.23c0,0,9.94,4.59,11.47,26.76c0,0-5.35,36.69,5.35,38.99c0,0,33.64,3.82,44.34-23.7
			c0,0,20.64-47.4-35.93-61.16c0,0-57.33-10.7-96.32,47.4c0,0-48.16,64.98,42.05,123.84s169.71-43.57,169.71-43.57
			s70.33-83.33,16.82-154.42c0,0-32.11-66.51-155.18-42.05C155.57,5.4,105.11,13.81,69.57,50.13z"/>
		<path class="st2" d="M214.43,135.36c-1.99,5.11-4.77,9.14-7.98,12.32c0.98-1.66,1.87-3.47,2.63-5.44c0,0,20.64-47.4-35.93-61.16
			c0,0-49.9-9.31-88.25,36.6c38.88-53.7,93.6-43.48,93.6-43.48C235.07,87.97,214.43,135.36,214.43,135.36z"/>
		<path class="st3" d="M251.69,168.08c-6.52,11.8-27.23,39.79-77.78,42.2c0,0-46.63,6.88-55.81-16.05c0,0-24.46-51.22-7.64-79.5
			c0,0,1.26-1.59,3.47-3.72c-11.26,28.93,10.29,74.05,10.29,74.05c9.17,22.93,55.81,16.05,55.81,16.05
			C219.98,199.2,241.29,181.32,251.69,168.08z"/>
	</g>
	<g>
		<path class="st4" d="M63.22,119.59c-13.5,5.02-49.57,20.53-62.99,47.04c-0.01,0.02-0.02,0.02-0.02,0.02
			c13.32-73.44,62.47-47.73,62.47-47.73L63.22,119.59z"/>
		<path class="st5" d="M0,167.85c0.07-0.41,0.14-0.8,0.21-1.2c0,0,0.01-0.01,0.02-0.02c0.67-0.98,22.07-31.6,65.25-44.2l0.26,0.32
			C73.39,183.14,0,167.85,0,167.85z"/>
		<path class="st4" d="M65.48,122.43c-43.18,12.6-64.58,43.22-65.25,44.2c13.42-26.51,49.49-42.01,62.99-47.04L65.48,122.43z"/>
		<path class="st6" d="M68.42,121.6c-0.99,0.27-1.96,0.54-2.94,0.83c-43.18,12.6-64.58,43.22-65.25,44.2
			c13.42-26.51,49.49-42.01,62.99-47.04c3.26-1.21,5.2-1.81,5.2-1.81C76.06,117.78,68.42,121.6,68.42,121.6z"/>
	</g>
	<g>
		<path class="st4" d="M71.18,93.85c-8.57-3.92-32.44-13.44-50.92-7.38c-0.01,0-0.02,0-0.02,0c40.15-27.82,51,6.82,51,6.82
			L71.18,93.85z"/>
		<path class="st5" d="M19.59,86.93c0.22-0.16,0.44-0.31,0.65-0.46c0,0,0.01,0,0.02,0c0.76-0.14,24.84-4.41,50.65,9.74l-0.03,0.27
			C46.48,127.97,19.59,86.93,19.59,86.93z"/>
		<path class="st4" d="M70.92,96.21c-25.81-14.15-49.89-9.88-50.65-9.74c18.48-6.06,42.35,3.46,50.92,7.38L70.92,96.21z"/>
		<path class="st6" d="M72.66,97.19c-0.58-0.33-1.16-0.66-1.74-0.98c-25.81-14.15-49.89-9.88-50.65-9.74
			c18.48-6.06,42.35,3.46,50.92,7.38c2.07,0.95,3.24,1.57,3.24,1.57C77.96,98.96,72.66,97.19,72.66,97.19z"/>
	</g>
</g>
<g>
</g>
<g>
</g>
<g>
</g>
<g>
</g>
<g>
</g>
<g>
</g>
<g>
</g>
<g>
</g>
<g>
</g>
<g>
</g>
<g>
</g>
<g>
</g>
<g>
</g>
<g>
</g>
<g>
</g>
</svg>
