<?xml version="1.0" encoding="utf-8"?>
<!-- Generator: Adobe Illustrator 24.1.1, SVG Export Plug-In . SVG Version: 6.00 Build 0)  -->
<svg version="1.1" id="Camada_1" xmlns="http://www.w3.org/2000/svg" xmlns:xlink="http://www.w3.org/1999/xlink" x="0px" y="0px"
	 viewBox="0 0 230.2 89.5" style="enable-background:new 0 0 230.2 89.5;" xml:space="preserve">
<style type="text/css">
	.st0{fill:#0F2639;}
	.st1{fill:#0E273A;}
	.st2{fill:#0E2739;}
	.st3{fill:#0E283B;}
	.st4{fill:#F9F5F2;}
	.st5{fill:#C9C6C2;}
	.st6{fill:#FDFBF8;}
	.st7{fill:#0E293C;}
	.st8{fill:#111627;}
	.st9{fill:#FCF9F6;}
	.st10{fill:#F6F4F4;}
	.st11{fill:#0C111F;}
	.st12{fill:#0F293C;}
	.st13{fill:#0B0E11;}
	.st14{fill:#F5F2EF;}
	.st15{fill:#2C2F32;}
	.st16{fill:#E6970E;}
	.st17{fill:#E79916;}
	.st18{fill:#0F1323;}
	.st19{fill:#F9F9F6;}
	.st20{fill:#F9F9F7;}
	.st21{fill:#0E2537;}
	.st22{fill:#F5ECE2;}
	.st23{fill:#F5ECE3;}
	.st24{fill:#F4ECE2;}
	.st25{fill:#F4EBE2;}
	.st26{fill:#F3EAE0;}
	.st27{fill:#E7A01E;}
	.st28{fill:#F9F5F1;}
	.st29{fill:#F3EBE1;}
	.st30{fill:#F4EAE0;}
	.st31{fill:#0A0F16;}
	.st32{fill:#090E15;}
	.st33{fill:#F9F7F5;}
	.st34{fill:#E6920B;}
	.st35{fill:#E7980E;}
	.st36{fill:#080A0C;}
	.st37{fill:#0E2A3E;}
	.st38{fill:#0D2A3D;}
	.st39{fill:#0C2433;}
	.st40{fill:#0C2432;}
	.st41{fill:#0E2B3E;}
	.st42{fill:#0B2433;}
	.st43{fill:#0E2B3F;}
	.st44{fill:#0B2532;}
	.st45{fill:#0D2534;}
	.st46{fill:#0C2C3F;}
	.st47{fill:#0E2D40;}
	.st48{fill:#0D2C40;}
	.st49{fill:#0F2D41;}
	.st50{fill:#090B10;}
	.st51{fill:#0F283C;}
	.st52{fill:#0F293D;}
	.st53{fill:#0F3044;}
	.st54{fill:#0F2E42;}
	.st55{fill:#0F2B3F;}
	.st56{fill:#0E2233;}
	.st57{fill:#E9A61F;}
	.st58{fill:#FAD28A;}
</style>
<g>
	<g>
		<g>
			<path class="st0" d="M60.8,72.5c-0.5,1-1.4,1.4-2.5,1.7c-2.9,0.8-5.8,1.7-8.7,2.6c-0.8,0.3-1.3,0-1.5-0.8
				c-0.1-0.2-0.2-0.4-0.1-0.6c0.2-0.4,0.1-0.8,0-1.2c0-0.1,0-0.2,0-0.3c0.3-0.4,0-0.8-0.1-1.2c0-0.1,0-0.2,0-0.3
				c0.2-1.1,0.1-2.2,0-3.3c0-0.1,0-0.2,0-0.3c0.1-0.5,0.1-1.1,0-1.6c0-0.1,0-0.2,0-0.3c0.2-0.8,0.1-1.6,0-2.4c0-0.1,0-0.2,0-0.3
				c0.1-2.2,0.2-4.4,0-6.7c-0.1-0.3-0.1-0.7-0.1-1c0.1-0.6,0.3-1.2,0-1.9c0-0.2,0-0.4,0-0.7c0.2-1.6,0.2-3.2,0-4.8
				c0-0.2,0-0.4,0-0.7c0.1-0.4,0.3-0.9,0.1-1.3c0-0.1,0-0.2,0-0.3c0.2-0.8,0.1-1.7,0-2.5c0-0.1,0-0.2,0-0.3c0.4-1.3,0-2.6,0.1-3.9
				c-0.1-0.6,0-1.1-0.1-1.7c0-0.1,0-0.2,0.1-0.3c0.4-1,1.1-1.5,2.1-1.4c0.6,0.3,1.2,0,1.9,0.1c0.7,0.2,1.4,0.3,2.1,0
				c0.1,0,0.2,0,0.3,0.1c0.4,0.4,0.7,0.6,1.4,0.3c0.5-0.2,1-0.3,1.6-0.1c0.3,0.1,0.5-0.4,0.8-0.3c0.2,0,0.4,0,0.6,0.1
				c1-0.5,1.3,0.6,1.8,1c0.1,0.1,0.1,0.2,0,0.4c-0.1,1.3,0,2.5,0,3.8c0,0.6-0.5,0.8-0.7,1.2c0,0.1-0.1,0.1-0.2,0
				c0.1,0.1,0.1-0.1,0.2-0.1c0.1-0.2,0.3-0.3,0.5-0.2c0.1,0.1,0.1,0.3,0.1,0.5c-0.2,0.4-0.2,0.9-0.5,1.2c-0.2,0.2-0.3,0.4-0.1,0.6
				c0.6,0.5,0.4,1.3,0.6,1.9c0,0.1,0,0.2-0.1,0.3c-0.5,0.4-0.8,0.3-0.9-0.3c0.1,0.5,0.1,1-0.3,1.2c-0.6,0.3-0.9,0.9-1.3,1.4
				c0.1,0.2,0.4,0.1,0.5,0.2c0.4,0.3,1.2-0.2,1.4,0.3c0.2,0.6,0.1,1.3-0.1,2c-0.1,0.4-0.1,0.6,0.2,0.8c1.1,0.5,0.6,1.3,0.3,2
				c-0.3,0.6-0.8,1,0.1,1.5c0.3,0.1,0.3,0.7-0.1,0.8c-1.3,0.3-0.2,1.1-0.2,1.6c0,0.3,0.4,0.6,0.4,1c-0.1,0.3-0.2,0.5-0.7,0.5
				c0.8,0.3,0.9,1.1,1.1,1.7c0,1.7,0.1,3.3-0.1,5c-0.2,0.9-0.3,1.8,0,2.7c0.1,0.8,0,1.6,0.1,2.4C60.9,72.3,60.9,72.4,60.8,72.5z"/>
			<path class="st1" d="M53.5,19.9c0-2.8-0.3-5.7,0.1-8.4C46.3,18.1,28.1,34,24.8,37.3c-1.1,1.1-1.5,1.1-2.5,0
				c-1.1-1.1-2.1-2.2-3.2-3.3c-2.7-2.6-5.4-5.3-8-7.9c-0.7-0.7-1.3-1.7-2.4-1.9c-0.5,0.1-0.9,0.1-1.4,0c-1.7,1-3,2.2-3.9,3.9
				c0.1,0.5,0.1,0.9,0,1.4c0.1,0.5,0.4,0.9,0.7,1.3c3,3,6,6,9,9.1c0.5-0.3,0.4-0.9,0.8-1.2c1.2,1.2,1.5,1.3,3,0.6
				c-0.4,0.5-0.7,0.9-1,1.2c-0.3,0.5-1,0.7-0.8,1.4c1.8,1.8,3.6,3.6,5.3,5.5c0.7,0.8,1.4,1.5,2.4,1.9c0.4,0.1,0.8,0.2,1.2,0
				c0.5-0.3,1-0.6,1.4-1c3.4-3.5,21.3-19.3,28.9-26.3C53.9,21.5,53.5,20.8,53.5,19.9z"/>
			<path class="st2" d="M42.3,48.5c0.9,0.2,1.2,0.9,1.4,1.6c0.1,9.1,0,18.1,0.1,27.2c0,0.2,0.2,0.4-0.1,0.6
				c-0.3,0.6-0.8,1.1-1.5,1.3c-2.9,0.8-5.9,1.7-8.8,2.6c-0.9,0.3-1.7,0.2-1.9-1c0.1-0.1,0.1-0.2,0.2-0.3c0-0.8,0.2-1.5-0.1-2.3
				c0-0.5,0-1,0-1.5c0.2-0.7,0.5-1.4,0-2.1c0-0.9,0-1.8,0-2.7c0.4-0.7,0-1.5,0.3-2.1c0.4-0.6-0.3,0-0.2-0.2
				c-0.1-0.1-0.1-0.2-0.1-0.3c0.2-0.7,0.2-1.3,0-2c0-0.3,0-0.5,0-0.8c0.6-0.5-0.1-0.9,0-1.4c0-1.2,0-2.4,0-3.7c0.3-1,0.2-2,0-2.9
				c0-0.1,0-0.2,0-0.3c0.3-0.7,0.2-1.5,0-2.2c0-0.1-0.1-0.2,0-0.3c0.2-0.4,0.1-0.8,0-1.2c0-0.1,0-0.2,0-0.3c0.3-0.7-0.3-1.6,0.6-2.1
				c-0.2-0.1-0.4,0.1-0.5-0.1c-0.1-0.1-0.1-0.2,0-0.3c0.3-0.6,0.9-0.3,1.4-0.5c-0.5-0.7,0.4-0.9,0.5-1.3c0.9,0.2,1.1-1.2,2-0.9
				c0-0.2,0-0.3,0.2-0.4c0.2,0,0.5,0,0.7,0c0.8,0.1,1.6,0.1,2.4,0C39.9,48.5,41.1,48.7,42.3,48.5z"/>
			<path class="st2" d="M26.7,83.3c-0.2,0.5-0.7,0.6-1.1,0.7c-3,0.9-6.1,1.7-9.1,2.6c-0.9,0.3-1.4,0-1.9-0.8
				c-0.1-0.1-0.1-0.3-0.1-0.4c0-9.2,0.1-18.3,0-27.5c0-0.2-0.2-0.5,0.2-0.6c0.2-0.3,0.5-0.7,1-0.8c0.3,0,0.7,0,1,0
				c1.4,0.1,2.8,0,4.2,0c1.2-0.1,2.4,0.3,3.6-0.1c0.4,0,0.9-0.1,1.3,0.1c0.6,0.1,0.8,0.6,1.1,1c0.2,0.1,0.2,0.2,0.1,0.4
				c-0.1,0.1-0.1,0.3-0.2,0.4c-0.3,0.6,0,1.3,0.1,1.9c-0.1,0.5,0.1,1,0,1.5c-0.3,0.6-0.5,1.2-0.1,1.8c0,0.1,0,0.2-0.1,0.3
				c-0.3,0.1-0.8-0.1-0.4,0.5c0.2,0.3,0.4,0.5,0.5,0.8c0,0.1,0,0.2,0,0.3c-0.1,0.4-1,0.6-0.2,1.2c0.2,0.2,0.1,0.7,0.3,1.1
				c0,0.1,0,0.2,0,0.3c-0.5,0.5-0.2,1.1-0.4,1.6c-0.3,0.7-0.6,1.3-0.3,2.1c0.1,0.2,0.1,0.5-0.2,0.7c-0.1,0-0.1,0-0.2,0
				c1.5,0.2,0.7,1.3,0.8,2.1c0,0.3-0.1,0.6-0.3,0.9c-0.2,0.3-0.2,0.6,0.2,0.8c0.4,0.2-0.1,0.6,0.1,0.8c-0.1,0.9-0.6,1.7-0.6,2.6
				c-0.1,0.7-0.7,0.8-1.1,0.3c-0.2-0.3-0.5-0.4-0.7-0.6C24,79,23.4,78.2,23,77.8c0.3,0.6,0.7,1.2,1.2,1.8c0,0.5-0.4,0.3-0.7,0.3
				c-0.9-0.2-1.4-0.9-1.9-1.7c-0.4-0.2-0.5-0.5-1-0.7c0.4,0.3,0.7,0.6,1.1,0.8c-0.2,1.1-0.8,1.4-1.8,1.2c-0.1,0-0.1-0.1-0.2-0.1
				c0,0,0.1,0,0.1,0.1c0.2,0.1,0.5,0.2,0.7,0.1c1-0.7,1.9-0.2,2.6,0.4c0.4,0.3,1.3-0.3,1.4,0.6c0.1,0.2,0,0.5-0.1,0.7
				c-0.3,0.4-0.5,0.8-1.1,0.6c-0.3,0.1,0.1-0.5-0.3-0.2c-0.2,0.2-0.5,0.2-0.9,0.3c0.4,0,0.7-0.3,1.1-0.2c0.2,0.2,0.4,0.2,0.6,0.1
				c0.3-0.1,0.6-0.1,0.7,0.2c0.2,0.4-0.2,0.5-0.3,0.8c-0.2,0.1,0.1,0.2,0,0.1C25.2,82.2,26,82.5,26.7,83.3z"/>
			<path class="st3" d="M26.7,83.3c-0.5,0-0.8-0.4-1.4-0.4c-0.6,0-1.2-0.4-1.1,1c-0.5-1.1,0.2-1.3,0.3-1.9c-0.4-0.2-1,0.4-1.2-0.3
				c0.5,0,0.7-0.3,0.9-0.7c0.1-0.1,0.4-0.2,0.2-0.5c-0.1-0.1-0.2-0.2-0.2-0.2c-0.6,0.4-1-0.1-1.4-0.3c-0.4-0.1-0.6,0-0.6-0.6
				c0-0.2-0.5-0.2-0.9,0c-0.5,0.3-1,0.7-1.5-0.1l0,0c0.9,0,1.6-0.1,1.9-1.2c0.9,0.2,1.1,1.3,2.1,1.5c0.2,0,0.4,0.1,0.5-0.1
				c0.8-0.5,0.9,0.2,1.1,1c0.8-1.1,0.5-2.4,1.3-3.3c0.2-0.1,0.3,0,0.4,0.1c0.4,1.9,0.2,3.9-0.1,5.8C26.8,83.2,26.7,83.2,26.7,83.3z"
				/>
			<path class="st4" d="M47.9,75.8c-0.4-0.4-0.3-0.9-0.3-1.3c0.2-11.6,0-23.2,0.1-34.9c0-0.5-0.2-1,0.2-1.4c0.5,1.5,0.2,3,0.2,4.5
				c0,2.8,0,5.6,0,8.5c-0.1,5.9,0.1,11.8,0,17.7c0,1.9-0.1,3.9,0,5.8C48.2,75.1,48.1,75.4,47.9,75.8z"/>
			<path class="st5" d="M47.9,75.8c0-12.5,0-25.1,0-37.6c0.1,0,0.1,0,0.2,0c0,0.1,0.1,0.2,0.1,0.3c0.2,0.6,0,1.3,0.1,1.9
				c-0.1,1.3,0.1,2.6-0.1,3.9c0,0.1,0,0.2,0,0.2c0.1,0.9,0.1,1.7,0,2.6c0,0.1,0,0.2,0,0.2c0.2,0.4,0.1,0.8,0,1.2c0,0.2,0,0.5,0,0.7
				c0.1,1.6,0.1,3.3,0,4.9c0,0.2,0,0.5,0,0.7c0.2,0.5,0.1,1.1,0,1.6c0,0.4,0,0.8,0,1.2c0.1,2.3,0.2,4.5,0,6.8c0,0.1,0,0.2,0,0.2
				c0.1,0.8,0.1,1.5,0,2.3c0,0.1,0,0.2,0,0.2c0.1,0.5,0.1,1.1,0,1.6c0,0.1,0,0.2,0,0.2c0.1,1.2,0.2,2.3,0,3.5c0,0.1,0,0.2,0,0.2
				c0.1,0.4,0.3,0.8,0,1.2c0,0.1,0,0.2,0,0.2c0.1,0.4,0.2,0.8,0,1.2c0,0.2-0.1,0.5-0.1,0.7C48.1,75.9,48,75.9,47.9,75.8z"/>
			<path class="st6" d="M60.7,38.2c0-0.1,0-0.2,0-0.2c0.4,0.4,0.2,0.8,0.2,1.2c0,3.4,0,6.8,0,10.2c0.2,0.9,0.3,1.9,0,2.8
				c0.1,0.4,0.1,0.8,0,1.2c0.2,0.9,0.2,1.9,0,2.8c0,0.2,0,0.3,0,0.5c0.2,0.5,0.2,0.9,0,1.4c0,0.9,0,1.7,0,2.6c0.2,1.2,0.2,2.5,0,3.7
				c0,0.1,0,0.2,0,0.2c0.2,0.8,0.2,1.6,0,2.3c0,0.1,0,0.2,0,0.2c0.2,0.5,0.2,1.1,0,1.6c-0.2,1.2,0.3,2.5-0.2,3.7c0-0.1,0-0.2,0-0.2
				c-0.1-1.9-0.2-3.8-0.1-5.7c0.2-3.5-0.3-7-0.2-10.6c0.1-2.9,0-5.7,0.1-8.6c0.1-2.7,0.3-5.3,0.1-8C60.7,39,60.6,38.6,60.7,38.2z"/>
			<path class="st7" d="M13.1,39.9c0.1-0.3,0.1-0.7,0.3-1c0.2-0.5,0.5-0.7,1-0.2c0.6,0.6,1.2,1.3,2.1,0.4c0.1-0.1,0.2-0.5,0.4-0.1
				c0.1,0.2,0.4,0.3,0.1,0.7c-0.6,0.7-1.2,1.5-1.7,2.3C14.5,41.3,13.8,40.6,13.1,39.9z"/>
			<path class="st8" d="M31.6,76.5c0,0.6,0,1.2,0,1.9c0.3,0.8,0.1,1.6,0,2.3l-0.1,0c0,0-0.1,0-0.1,0c0-3-0.1-6-0.1-9.1
				c0-6.6,0-13.3,0-19.9c0-0.5,0.1-1.1,0.1-1.6c0.8,0.5,0.5,1,0.2,1.6c0,0.1,0,0.2,0,0.2c0.3,0.8,0.2,1.6,0,2.3c0,0.1,0,0.2,0,0.2
				c0.2,0.4,0.2,0.8,0,1.2c0,0.1,0,0.2,0,0.2c0.3,0.8,0.1,1.6,0,2.3c0,0.1,0,0.2,0,0.2c0.2,0.9,0.2,1.7,0,2.6c0,1.5,0,3,0,4.4
				c0.2,0.3,0.2,0.6,0,0.9c0,0.3,0,0.6,0,0.9c0.2,0.6,0.2,1.2,0,1.9c0,0.1,0,0.2,0,0.2c0.2,0.7,0.3,1.4,0,2.1c0,1.1,0,2.2,0,3.3
				C31.8,75.4,31.9,75.9,31.6,76.5z"/>
			<path class="st9" d="M14.6,85.6c0,0.1,0,0.1,0,0.2c-0.4-0.3-0.3-0.8-0.3-1.2c0-8.7,0-17.3,0-26c0-0.4-0.2-1,0.3-1.3
				c0,0.2-0.1,0.3-0.1,0.5c0.1,0.3,0.1,0.5,0.1,0.8c0,8.8,0,17.5,0,26.3C14.7,85.1,14.7,85.4,14.6,85.6z"/>
			<path class="st10" d="M43.7,77.9c0-0.2,0-0.3,0-0.5c-0.1-0.3-0.1-0.5-0.1-0.8c0-8.3,0-16.7,0-25c0-0.3-0.1-0.7,0.1-1
				c0.3,0.4,0.2,0.8,0.2,1.2c0,8.3,0,16.5,0,24.8C44,77,44.2,77.5,43.7,77.9z"/>
			<path class="st11" d="M43.8,50.6c0,8.4,0,16.7,0,25.1c0,0.6,0,1.2,0,1.7c-0.3-0.3-0.2-0.7-0.2-1.1c0-8.4,0-16.7,0-25.1
				c0-0.4-0.1-0.8,0.2-1.1C43.7,50.3,43.7,50.4,43.8,50.6z"/>
			<path class="st12" d="M31.6,51.7c-0.1-0.5,0.2-1.1-0.2-1.6c0.1-0.3,0.2-0.6,0.4-0.8c0.4,0.1,0.6,0.4,0.7,0.8
				c0.2-0.6-0.5-0.6-0.5-1c0.3-0.4,0.6-0.6,1-0.6c0.8,0.2,1.7-0.1,2.6,0.2c0,0.2,0,0.5-0.1,0.5c-0.5-0.2-0.7,0-0.6,0.4
				c0.2,0.5-0.3,0.6-0.5,0.5c-0.9-0.5-0.8,0.5-1.3,0.7c-0.2,0.1-0.2,0.2,0.5,0.5C33,51.8,32.2,51.3,31.6,51.7z"/>
			<path class="st13" d="M26.7,83.1c0-2,0-3.9-0.1-5.9c-0.3-0.8-0.4-1.6-0.2-2.5c0.1-0.5,0.1-1.1,0-1.6c-0.5-1.7,0-3.4,0.2-5
				c0-0.1,0-0.2,0-0.2c-0.1-0.8-0.4-1.5,0-2.3c0-0.1,0-0.2,0-0.2c-0.3-0.5-0.4-0.9,0-1.4c0-0.1,0-0.2,0-0.2c-0.3-0.5-0.3-1.1,0-1.6
				c0-0.6,0-1.3,0-1.9c-0.2-0.6-0.3-1.2,0-1.9c0.1-0.1,0.1-0.2,0.2-0.2c0.3,0.8,0.2,1.7,0.1,2.6c0,0.1,0,0.2,0,0.2
				c0.2,1.9,0.1,3.8,0.1,5.7c0,4.4,0,8.8,0.1,13.2c0,1.1-0.1,2.2-0.2,3.3C26.9,83.1,26.8,83.1,26.7,83.1z"/>
			<path class="st14" d="M26.9,83c0-7.4,0-14.8,0-22.2c0.3,0.4,0.2,0.8,0.2,1.2c0,5,0,10.1,0,15.1c0.2,1.3,0.2,2.6,0,4
				C27,81.8,27.4,82.5,26.9,83z"/>
			<path class="st15" d="M25.7,56.6c-0.5,0-0.9,0-1.4,0c-1.2,0.3-2.3,0-3.5,0.1c-1.5-0.1-3,0.1-4.4-0.1c-0.3,0.2-0.5,0.1-0.8-0.1
				c0.5-0.3,1-0.2,1.5-0.2c2.4,0,4.9,0,7.3,0C24.9,56.4,25.4,56.3,25.7,56.6z"/>
			<path class="st16" d="M48.4,12.5c-0.2,0.3-0.4,0.3-0.7,0.3c-2.8,0-5.7,0-8.5,0c-0.2,0-0.4-0.1-0.5-0.2c0.5-0.3,1-0.2,1.6-0.2
				c2.1,0,4.2-0.1,6.4,0.1C47.2,12.4,47.8,12.4,48.4,12.5z"/>
			<path class="st17" d="M69.9,12.5c-0.3,0.2-0.6,0.2-0.9,0.2c-2.9,0-5.8,0-8.7,0c0-0.3,0.3-0.2,0.4-0.2c0.2,0,0.3,0,0.5,0
				c2.8-0.1,5.6-0.1,8.4,0C69.7,12.5,69.8,12.5,69.9,12.5z"/>
			<path class="st18" d="M35.6,48.7c-0.9-0.1-1.7,0.2-2.6-0.2c3.1-0.2,6.2-0.1,9.3,0c-1.2,0.4-2.5,0.1-3.7,0.2
				c-0.8,0.2-1.6,0.2-2.3,0C36,48.7,35.8,48.7,35.6,48.7z"/>
			<path class="st18" d="M54.5,37c-0.1,0-0.2,0-0.2,0c-0.6,0.3-1.2,0.2-1.9,0c-0.7-0.1-1.4,0.2-2.1-0.3c2.8-0.2,5.5,0,8.3-0.1
				c0.2,0,0.4,0.1,0.4,0.3c-0.3,0-0.5,0-0.8,0C57,37.1,55.7,37.6,54.5,37z"/>
			<path class="st19" d="M69.7,12.4c-2.8,0-5.6,0-8.4,0c1.6-0.4,3.1-0.2,4.7-0.2C67.2,12.3,68.4,12,69.7,12.4z"/>
			<path class="st20" d="M46.5,12.4c-2.6,0-5.3,0.1-7.9,0.1c-0.1,0-0.2,0-0.2,0c0.2-0.2,0.4-0.2,0.6-0.2c2.3,0,4.7,0,7,0
				C46.2,12.3,46.3,12.4,46.5,12.4z"/>
			<path class="st21" d="M32,49.1c0.4,0,0.7,0.2,0.9,0.5c0.1,0.2,0.5,0.4,0.2,0.5c-0.3,0.1-0.4,0.4-0.6,0.4
				c-0.4,0.1-0.2-0.3-0.3-0.5c-0.1-0.2-0.3-0.5-0.4-0.7C31.9,49.3,31.9,49.2,32,49.1z"/>
			<path class="st22" d="M61,64.3c0-1.2,0-2.5,0-3.7C61.7,61.8,61.4,63.1,61,64.3z"/>
			<path class="st23" d="M27.2,81.2c0-1.3,0-2.6,0-4C27.5,78.5,27.5,79.8,27.2,81.2z"/>
			<path class="st14" d="M27,60.6c0-0.9-0.1-1.7-0.1-2.6c0-0.1,0-0.3,0-0.4c0.1-0.1,0.3-0.2,0.3,0C27,58.6,27.4,59.6,27,60.6z"/>
			<path class="st24" d="M61,52.2c0-0.9,0-1.9,0-2.8C61.3,50.3,61.7,51.3,61,52.2z"/>
			<path class="st25" d="M61,56.2c0-0.9,0-1.9,0-2.8C61.4,54.3,61.4,55.2,61,56.2z"/>
			<path class="st26" d="M61,66.9c0-0.8,0-1.6,0-2.3C61.4,65.3,61.4,66.1,61,66.9z"/>
			<path class="st27" d="M62.7,23.9c-0.7-0.3-0.6-0.8-0.3-1.4C62.5,23,62.6,23.5,62.7,23.9z"/>
			<path class="st28" d="M58,8.7c-0.2-0.4-0.4-0.7-0.3-1.1C57.9,7.9,58.9,8.1,58,8.7z"/>
			<path class="st29" d="M61,68.8c0-0.5,0-1.1,0-1.6C61.4,67.7,61.4,68.2,61,68.8z"/>
			<path class="st30" d="M61,58c0-0.5,0-0.9,0-1.4C61.4,57.1,61.4,57.6,61,58z"/>
			<path class="st31" d="M8.7,24.2c-0.5,0.3-0.9,0.3-1.4,0C7.8,24.1,8.2,24.1,8.7,24.2z"/>
			<path class="st32" d="M3.4,28.1c0.3,0.5,0.3,0.9,0,1.4C3.2,29.1,3.2,28.6,3.4,28.1z"/>
			<path class="st33" d="M22.9,49.4c0.4,0,0.8,0,1.2,0C23.7,49.8,23.3,49.7,22.9,49.4z"/>
			<path class="st34" d="M65.4,33c-0.3-0.4-0.3-0.8,0-1.1C65.5,32.3,65.5,32.6,65.4,33z"/>
			<path class="st35" d="M43.3,31.7c0.3,0.4,0.3,0.8,0,1.1C43.3,32.4,43.3,32,43.3,31.7z"/>
			<path class="st3" d="M60.3,59.9c-0.3-0.6-0.6-1-1.3-1.2c0-0.3,1-0.5,0.1-0.9c-0.2-0.1-0.3-0.4-0.1-0.6c0.4-0.3,0.8-0.1,1.2,0
				c0.1-0.3,0-0.5-0.2-0.6c-1.2-0.1-0.8-0.8-0.3-1.3c0.4-0.3,0.4-0.8,0.5-1.1c0.1-0.4,0.3-0.6-0.4-0.7c-0.5-0.1-1-0.6-0.3-1.2
				c0.3-0.2,0.1-0.4,0-0.6c-0.1-0.2-0.4-0.5,0-0.7c0.2-0.1,0.4-0.3,0.3-0.5c-0.2-0.4-0.4-0.1-0.6,0.1c-0.5-0.3-1.2-0.2-1.6-0.8
				c-0.2-0.3,0-0.3,0.2-0.5c0.4-0.5,0.9-0.8,1.4-1.1c0.7-0.5,0.3-1.1,0-1.7c0.8-0.2,0.3,1.4,1.4,0.9c0.2,0.4,0.1,0.9,0.1,1.4
				c0,3.6,0,7.2,0,10.9C60.6,59.9,60.5,60,60.3,59.9z"/>
			<path class="st36" d="M60.5,59.9c0-4.1,0-8.3,0-12.4c0-0.1,0-0.2,0-0.2c-0.2-1.2-0.5-2.5,0-3.7c0-0.2,0-0.3,0-0.5
				c-0.2-0.2-0.1-0.5,0-0.7c0.1-1.4-0.2-2.8,0.2-4.2c0,8.3,0,16.6,0,24.9c0,3.1,0,6.1,0,9.2c-0.4-0.8-0.1-1.7-0.2-2.6
				c-0.2-0.8-0.2-1.5,0-2.3c0-1.9,0-3.7,0-5.6C60.4,61.1,60.2,60.5,60.5,59.9z"/>
			<path class="st37" d="M54.5,37c1.2,0,2.5,0,3.7,0c-0.3,0.2-0.4,0.5-0.9,0.4c-0.6-0.1-1.4-0.2-1.9,0.5
				C55.2,38.2,54.9,37.9,54.5,37z"/>
			<path class="st38" d="M60.5,43.6c0,1.2,0,2.5,0,3.7c-0.4,0-0.4-0.2-0.3-0.6c0.1-0.3,0.2-0.6,0-0.8C58.7,44.9,60.4,44.3,60.5,43.6
				z"/>
			<path class="st39" d="M48.2,64.3c0-2.3,0-4.5,0-6.8c0.6,0.4,0.2,0.9,0.2,1.3c0,1.6,0,3.1,0,4.7C48.4,63.8,48.4,64.1,48.2,64.3z"
				/>
			<path class="st39" d="M48.2,54.1c0-1.6,0-3.3,0-4.9C48.6,50.8,48.5,52.4,48.2,54.1z"/>
			<path class="st3" d="M55.2,51.1c0.2-0.3,0.7-0.4,0.8-0.9c0.1,0.2,0.3,0.3,0.4,0.5c-0.3,0.2-0.2,0.9-0.8,0.9
				C55.4,51.6,54.8,51.9,55.2,51.1z"/>
			<path class="st40" d="M48.2,44.2c0-1.3,0-2.6,0-4c0.1-0.1,0.1-0.1,0.2,0C48.4,41.6,48.8,42.9,48.2,44.2z"/>
			<path class="st3" d="M57.1,51.5c0.2,0.2,0.6-0.2,0.7,0.2c0.1,0.2-0.2,0.3-0.3,0.4c-0.3,0.1-0.7-0.1-0.8-0.4
				c-0.1-0.3,0-0.7,0.3-0.9c0.2-0.2,0.4-0.1,0.5,0.1C57.8,51.2,57.1,51.2,57.1,51.5z"/>
			<path class="st41" d="M60.5,59.9c0,0.6,0,1.2,0,1.9c-0.5-0.2-0.3-1.1-1-1.2c0-0.2,0-0.4,0.1-0.5c0.3-0.4,0.2,0.3,0.4,0.2
				c0.1-0.1,0.2-0.2,0.3-0.3C60.4,59.9,60.5,59.9,60.5,59.9z"/>
			<path class="st42" d="M48.2,72.5c0-1.2,0-2.3,0-3.5C48.5,70.2,48.7,71.3,48.2,72.5z"/>
			<path class="st38" d="M59.7,68.3c-0.3-0.4,0.1-1.2-1.1-0.9c0.7-0.5,1.1-0.4,1.6-0.4C59.7,67.3,60,67.8,59.7,68.3z"/>
			<path class="st43" d="M52.4,37c0.6,0,1.2,0,1.9,0C53.6,37.7,53,37.6,52.4,37z"/>
			<path class="st39" d="M48.2,47c0-0.9,0-1.7,0-2.6C48.5,45.3,48.6,46.2,48.2,47z"/>
			<path class="st39" d="M48.2,66.9c0-0.8,0-1.5,0-2.3C48.5,65.4,48.7,66.1,48.2,66.9z"/>
			<path class="st38" d="M60.5,67.4c0,0.8,0,1.5,0,2.3C60.1,68.9,60.2,68.2,60.5,67.4z"/>
			<path class="st44" d="M48.4,40.3L48.4,40.3l-0.2,0c0-0.6,0-1.2,0-1.9C48.6,39,48.3,39.7,48.4,40.3z"/>
			<path class="st42" d="M48.2,56.4c0-0.5,0-1.1,0-1.6C48.7,55.3,48.4,55.8,48.2,56.4z"/>
			<path class="st45" d="M48.2,73.9c0-0.4,0-0.8,0-1.2C48.4,73.1,49,73.5,48.2,73.9z"/>
			<path class="st42" d="M48.2,68.8c0-0.5,0-1.1,0-1.6C48.5,67.7,48.5,68.2,48.2,68.8z"/>
			<path class="st45" d="M48.2,75.3c0-0.4,0-0.8,0-1.2C48.3,74.5,49,74.9,48.2,75.3z"/>
			<path class="st38" d="M60,43.3c-0.2,0.2-0.4,0.4-0.7,0.3c-0.1,0-0.1-0.2-0.1-0.3C59.5,43,59.8,43.5,60,43.3z"/>
			<path class="st38" d="M60.5,42.4c0,0.2,0,0.5,0,0.7c-0.2,0.1-0.3,0.2-0.5,0.2C59.8,42.8,60.3,42.7,60.5,42.4z"/>
			<path class="st39" d="M48.2,48.4c0-0.4,0-0.8,0-1.2C48.8,47.7,48.4,48.1,48.2,48.4z"/>
			<path class="st38" d="M31.6,71.6c0-0.7,0-1.4,0-2.1c0.3-0.1,0.6-0.1,1.2-0.3c-0.6,0.5-1.4,0.8-0.5,1.4
				C31.9,70.8,32.4,71.7,31.6,71.6z"/>
			<path class="st12" d="M31.6,54.3c0-0.8,0-1.6,0-2.3c0.4-0.1,0.9-0.2,1.3,0.4c-0.8-0.3-1,0-1,0.7C31.8,53.4,32.2,54,31.6,54.3z"/>
			<path class="st46" d="M31.6,61.1c0-0.9,0-1.7,0-2.6c0.6,0.8,0.2,1.7,0.4,2.6C32,61.2,31.7,61.1,31.6,61.1z"/>
			<path class="st41" d="M31.6,58.3c0-0.8,0-1.6,0-2.3C32.3,56.7,32.1,57.5,31.6,58.3z"/>
			<path class="st47" d="M31.6,76.5c0-0.5,0-1.1,0-1.6C32.1,75,32.1,76,31.6,76.5z"/>
			<path class="st48" d="M31.6,80.7c0-0.8,0-1.6,0-2.3C32.6,79.1,31.7,79.9,31.6,80.7z"/>
			<path class="st49" d="M36.3,48.7c0.8,0,1.6,0,2.3,0C37.8,49.1,37,49.1,36.3,48.7z"/>
			<path class="st38" d="M31.6,69.2c0-0.6,0-1.2,0-1.9C32.1,68,32,68.6,31.6,69.2z"/>
			<path class="st38" d="M31.6,66.4c0-0.3,0-0.6,0-0.9c0.3,0.2,0.5,0.5,0.8,0.8C32.1,66.3,31.8,66.4,31.6,66.4z"/>
			<path class="st41" d="M31.6,55.7c0-0.4,0-0.8,0-1.2C31.8,54.9,32.2,55.3,31.6,55.7z"/>
			<path class="st50" d="M14.6,85.6c0-3.6,0-7.3,0-10.9c0-5.6,0-11.2,0-16.9c0.3,0.3,0.2,0.7,0.2,1.1c0,8.5,0,17,0,25.6
				C14.8,84.8,14.9,85.3,14.6,85.6z"/>
			<path class="st51" d="M26.7,68.1c0,3,0,6.1,0,9.1c-0.1,0-0.2,0-0.2,0c-0.2-0.1-1,0.1-0.1-0.4c0.1-0.1,0-0.3-0.1-0.3
				c-0.2-0.3-0.1-0.6-0.2-0.9c0.5-0.7,0.2-1.6,0.3-2.4c0-0.2-0.4-0.4-0.7-0.3c-0.3,0.1-0.6,0.1-0.9-0.2c1-0.1,1.6-0.4,0.7-1.5
				C25.3,71,25.7,70.4,26,70c0.4-0.5,0.6-1-0.5-1.2C26.2,68.9,26.2,68.2,26.7,68.1z"/>
			<path class="st3" d="M24.8,78.8c-0.4,0.2-0.8,0.6-0.9,0.6c-0.3-0.3-1.2-0.3-0.9-1.1c0.1-0.2,0-0.2-0.2-0.3
				c-0.3-0.1-0.8,0.1-0.7-0.5c0-0.2,0.4-0.3,0.4-0.1c0.2,0.6,1.3-0.9,1.1,0.5C23.5,78.7,24.2,78.6,24.8,78.8z"/>
			<path class="st51" d="M22.5,67.2c0.3-0.1,0,0.8,0.6,0.3c0.1-0.1,0.6-0.5,0.5,0.1c-0.1,0.4,0.8,0.4,0.3,0.6
				c-0.4,0.1-0.9,0.3-1.4,0.1c-0.5-0.2-0.1-0.5-0.1-0.7C22.5,67.4,22.5,67.3,22.5,67.2z"/>
			<path class="st52" d="M26.7,63.9c0,0.5,0,0.9,0,1.4c-0.2-0.2-0.4-0.3-0.6-0.5c-0.3-0.3-0.6-0.5-0.2-0.9
				C26.2,63.3,26.4,64,26.7,63.9z"/>
			<path class="st53" d="M16.4,56.6c1.5,0,3,0,4.4,0c0.1,0.1,0.1,0.1,0.1,0.2c0,0.1-0.1,0.1-0.1,0.1C19.4,56.8,17.9,57.3,16.4,56.6z
				"/>
			<path class="st41" d="M26.7,65.5c0,0.8,0,1.5,0,2.3c-0.3-0.1-0.5-0.3-0.4-0.6c0.2-0.6-0.2-0.8-0.7-1C26,65.9,26.3,65.7,26.7,65.5
				z"/>
			<path class="st54" d="M20.8,56.9c0-0.1,0-0.2,0-0.2c1.2,0,2.3,0,3.5,0c-0.6,0.8-1.4,0.1-2.1,0.2C21.8,56.9,21.3,56.9,20.8,56.9z"
				/>
			<path class="st3" d="M21.1,78.3c-0.1-0.7-0.8-0.4-1.1-0.7c-0.1-0.2,0-0.3,0.2-0.3c0.2-0.1,0.4-0.3,0.6,0c0.2,0.3,0.5,0.6,0.8,0.9
				C21.4,78.2,21.3,78.2,21.1,78.3z"/>
			<path class="st51" d="M21.7,67c0,0.3,0.2,0.6,0.1,0.8c-0.1,0.3-0.3,0.7-0.6,0.8c-0.1,0-0.2-0.1-0.3-0.2c-0.2-0.4,0.3-0.5,0.4-0.7
				C21.5,67.5,21.4,67.3,21.7,67z"/>
			<path class="st3" d="M22,82.4c0-1,0.8-0.9,1.4-1.3C23.1,82,22.1,81.7,22,82.4z"/>
			<path class="st52" d="M26.7,62c0,0.5,0,1.1,0,1.6C26.1,63.1,25.9,62.6,26.7,62z"/>
			<path class="st3" d="M26,75.6c0.6,0.2,0.3,0.6,0.2,0.9C25.3,76.4,25.8,75.9,26,75.6z"/>
			<path class="st55" d="M26.7,58.3c0,0.6,0,1.2,0,1.9C26.3,59.5,26,58.9,26.7,58.3z"/>
			<path class="st3" d="M19.7,78.2c0,0.1,0.1,0.3-0.2,0.3c-0.2,0-0.4-0.2-0.4-0.3c-0.1-0.2,0.1-0.4,0.3-0.4
				C19.7,77.8,19.6,78,19.7,78.2z"/>
			<path class="st51" d="M25.1,73.5c0.1,0.3-0.1,0.3-0.2,0.4c-0.1,0-0.3,0-0.3-0.2c0-0.2,0.1-0.4,0.3-0.4
				C24.9,73.3,25,73.5,25.1,73.5z"/>
			<path class="st3" d="M25.4,77.5c-0.4,0.1-0.7,0.4-1,0C24.8,77.1,25,77.4,25.4,77.5z"/>
			<path class="st51" d="M25,67.1c0.1,0.1,0.2,0.2,0.3,0.3c-0.1,0-0.2,0.2-0.2,0.1c-0.1,0-0.2-0.2-0.3-0.2
				C24.8,67.3,24.9,67.2,25,67.1z"/>
			<path class="st51" d="M25,68.9c0,0.2-0.1,0.3-0.3,0.3c-0.1,0-0.2-0.1-0.2-0.2c0.1-0.1,0.2-0.2,0.3-0.2C25,68.7,25,68.8,25,68.9z"
				/>
			<path class="st51" d="M22.3,68.1c-0.1,0.2,0.1,0.6-0.2,0.6c-0.3,0-0.2-0.2-0.1-0.4C22,68.2,22.2,68.1,22.3,68.1z"/>
			<path class="st3" d="M19.7,79.3c-0.2,0-0.4,0.2-0.6,0c0,0,0-0.3,0.1-0.3C19.4,79,19.5,79.1,19.7,79.3
				C19.7,79.3,19.7,79.3,19.7,79.3z"/>
			<path class="st56" d="M24.3,80.5c0.1-0.2,0.3-0.1,0.3,0.1c0,0.4-0.3,0.4-0.6,0.4C24.2,80.8,24.3,80.6,24.3,80.5z"/>
		</g>
		<path class="st57" d="M62.7,23.9c0.9,2.7,1.8,5.3,2.7,8c-0.1,0.4-0.1,0.8,0,1.1c-0.7,1.3-1.4,1.5-2.5,0.7c-2.3-1.7-4.6-3.3-6.8-5
			c-1.3-1-2.3-0.9-3.5,0c-2.2,1.7-4.4,3.3-6.6,5c-1.3,1-2.1,0.7-2.7-0.9c0.1-0.4,0.1-0.8,0-1.1c0.9-2.8,1.8-5.7,2.8-8.5
			c0.3-1,0.1-1.6-0.7-2.2c-2-1.5-4.1-3-6.1-4.5c-0.3-0.3-0.7-0.5-1-0.8c-1.4-1.1-1.4-2.1,0.1-3.2c0.1-0.1,0.3-0.1,0.4,0
			c3,0.1,5.9-0.1,8.9,0.1c0.3,0,0.5,0.1,0.8-0.1c1-0.2,1.4-0.9,1.7-1.8c0.8-2.6,1.6-5.2,2.4-7.8c0.2-0.7,0.7-1.1,1.3-1.6
			c0.3,0,0.6,0,0.9,0c0.8,0.4,1.2,1.1,1.5,2c0.4,1.5,1,2.9,1.5,4.4c0.2,0.4,0.5,0.7,0.3,1.1c0.1,0.5,0.3,0.9,0.4,1.4
			c0.2,1.4,0.9,2.3,2.4,2.3c2.2,0,4.4,0,6.7,0c0.8,0,1.6,0,2.4,0c0.7,0.1,1.2,0.5,1.4,1.2c0.2,0.8-0.2,1.4-0.9,1.9
			c-2.3,1.8-4.7,3.5-7,5.2c-0.6,0.4-1.1,0.9-1.1,1.7C62.2,23.1,62.3,23.5,62.7,23.9z"/>
	</g>
	<g>
		<path class="st0" d="M108.9,38.3L98.3,72.5H87.6L76.5,38.3h11.1L93,57c0.4,1.1,0.7,2.2,1,3.3l6.3-21.9H108.9z"/>
		<path class="st0" d="M120.7,63.4L130,64c-0.6,2.5-2,4.6-4.2,6.4c-2.3,1.8-5.3,2.6-9.2,2.6c-4.3,0-7.7-1.2-10.3-3.7
			c-2.6-2.5-3.8-5.6-3.8-9.2c0-3.8,1.3-7,3.8-9.6c2.5-2.6,5.9-3.9,10.1-3.9c4.1,0,7.4,1.2,9.9,3.7c2.5,2.5,3.8,5.8,3.8,10.1
			c0,0.4,0,0.8,0,1.5h-17.1c0,1.6,0.3,2.8,0.9,3.6s1.6,1.2,3.1,1.2C119,66.5,120.3,65.5,120.7,63.4z M120,56.8c0-1.7-0.4-2.9-1-3.5
			c-0.7-0.6-1.5-0.9-2.5-0.9c-2.4,0-3.5,1.5-3.5,4.4H120z"/>
		<path class="st0" d="M128.7,62.6l9.7-1.8c0.8,2.8,2.9,4.1,6.3,4.1c2.6,0,4-0.7,4-2.1c0-0.7-0.3-1.3-0.9-1.7s-1.7-0.8-3.3-1.1
			c-6-1.1-9.8-2.7-11.5-4.5c-1.7-1.9-2.6-4-2.6-6.5c0-3.2,1.2-5.9,3.7-8s6-3.2,10.6-3.2c7,0,11.6,2.8,13.8,8.4l-8.7,2.6
			c-0.9-2.3-2.7-3.4-5.5-3.4c-2.3,0-3.4,0.7-3.4,2.1c0,0.6,0.3,1.1,0.8,1.5c0.5,0.4,1.5,0.7,3,1c4.1,0.9,7,1.6,8.7,2.3
			c1.7,0.7,3.2,1.8,4.3,3.4c1.2,1.6,1.7,3.5,1.7,5.7c0,3.5-1.4,6.3-4.2,8.4c-2.8,2.1-6.5,3.2-11,3.2C135.8,73,130.6,69.6,128.7,62.6
			z"/>
		<path class="st0" d="M172.4,73c-4.2,0-7.6-1.3-10.1-3.9c-2.5-2.6-3.7-5.7-3.7-9.3c0-3.8,1.3-7,3.9-9.5c2.6-2.5,6-3.8,10.1-3.8
			c4.2,0,7.6,1.3,10.1,3.8c2.5,2.5,3.8,5.6,3.8,9.4c0,3.8-1.3,7-3.9,9.5C180.1,71.8,176.7,73,172.4,73z M172.5,67
			c1.6,0,2.5-0.8,2.8-2.4c0.3-1.6,0.5-3.3,0.5-5c0-2.4-0.2-4.1-0.7-5.2c-0.5-1.1-1.4-1.6-2.6-1.6c-1.2,0-2,0.5-2.5,1.6
			c-0.5,1.1-0.8,2.9-0.8,5.4c0,2.9,0.3,4.9,0.8,5.8C170.6,66.5,171.4,67,172.5,67z"/>
		<path class="st0" d="M198.1,53.5v19h-9.4v-19h-3.8V47h3.8c0-2.1,0.1-3.7,0.3-4.7c0.2-1,0.6-2,1.4-2.9c0.7-0.9,1.7-1.6,3-2.1
			c1.2-0.5,2.9-0.7,5-0.7c2.2,0,4.4,0.2,6.4,0.5v6.5c-1.6-0.2-2.8-0.3-3.6-0.3c-0.8,0-1.5,0.2-2.2,0.5c-0.7,0.3-1,1.1-1,2.3V47h6.5
			v6.5H198.1z"/>
		<path class="st0" d="M222.2,47v6.5h-5.1v9.4c0,1.3,0.2,2,0.7,2.3c0.5,0.2,1,0.4,1.5,0.4c0.8,0,1.8-0.1,2.9-0.4v7.1
			c-2,0.4-3.9,0.6-5.8,0.6c-3.1,0-5.3-0.7-6.8-2c-1.4-1.3-2.2-3.4-2.2-6.3l0-3v-8h-3.8V47h3.8l0.1-8.3l9.5-0.2V47H222.2z"/>
	</g>
	<path class="st58" d="M44.1,20l4.8-4.3c0.8-0.7,2-0.7,2.7,0.1l2.5,2.5c1.2,1.1,1.1,3.1-0.1,4.1l-10.7,9.3c0,0,2.3-5.7,2.6-9.1
		C46,22.5,46,21.4,44.1,20z"/>
</g>
</svg>
