<?xml version="1.0" encoding="utf-8"?>
<!-- Generator: Adobe Illustrator 24.1.1, SVG Export Plug-In . SVG Version: 6.00 Build 0)  -->
<svg version="1.1" id="Camada_1" xmlns="http://www.w3.org/2000/svg" xmlns:xlink="http://www.w3.org/1999/xlink" x="0px" y="0px"
	 viewBox="0 0 137 114" style="enable-background:new 0 0 137 114;" xml:space="preserve">
<style type="text/css">
	.st0{fill:#43A2D5;}
	.st1{fill:#48A74B;}
</style>
<g>
	<path class="st0" d="M100,94.5c-0.7-2.7-1.1-6.1-0.9-10.2c0,0,2.3-27.2-6.3-34.5c0,0-0.2-0.3-0.6-0.7c-0.8,3.4-2,6.8-3.7,9.8
		c0,0.2,0,0.2,0,0.2c-1.4,2.1-3,4.1-4.8,5.8c0,0.3-0.1,0.7-0.2,1c-0.2-0.1-0.4-0.2-0.6-0.3c-1.8,1.6-3.8,2.9-5.9,4
		c-0.2,0-0.2,0-0.2,0c-3.9,1.8-8.2,2.7-12.5,3C61.1,73,57.9,73,54.9,73h-2v0.2c-0.2,0.7-0.5,1.4-0.7,2c0,0.2-0.2,0.4-0.2,0.5
		c-0.4,1.1-1.1,2.7-2.1,4.5c0,0,0,0.4-0.3,0.9c-0.5,0.7-1,1.5-1.5,2.2c0.1,0.8,0.3,1.6,0.5,2.3c0.9,3,2.9,6.3,5.4,8.4
		c3.4,2.7,8.6,3.9,12.9,4.3c4.7,0.3,9.5-0.5,13.6-3c0.3-0.2,3.4-2,3.4-2.5c0.4,0.9,7.3,16.7,25.9,13.4c0.5-0.2,1.1-0.2,1.6-0.4
		C110.8,105.8,102.6,105.8,100,94.5z M65.1,81.5c-1.8,0-3.2-1.4-3.2-3.2c0-1.8,1.4-3.2,3.2-3.2c1.8,0,3.2,1.4,3.2,3.2
		C68.5,80,66.9,81.5,65.1,81.5z M74.2,81.5c-1.8,0-3.2-1.4-3.2-3.2c0-1.8,1.4-3.2,3.2-3.2s3.2,1.4,3.2,3.2
		C77.6,80,76,81.5,74.2,81.5z M83.4,81.5c-1.8,0-3.2-1.4-3.2-3.2c0-1.8,1.4-3.2,3.2-3.2s3.2,1.4,3.2,3.2
		C86.6,80,85.1,81.5,83.4,81.5z"/>
	<path class="st1" d="M49.9,71.8c0.2-0.5,0.5-1.3,0.7-2v-0.2h2c3,0,6.3,0,9.5-0.3c4.3-0.4,8.6-1.3,12.5-3c0,0,0,0,0.2,0
		c2.1-1.1,4.1-2.4,5.9-4c0.3-0.2,0.5-0.5,0.8-0.8c1.8-1.7,3.4-3.7,4.8-5.8c0,0,0,0,0-0.2c1.7-3.1,2.9-6.4,3.7-9.8
		c0.7-2.8,1-5.6,1.1-8.4C90.8,22.1,79.9,9.7,65.8,7.8c-1.1,0-1.8,0-1.8,0h-4.6L40.2,7.4C30.9,8.1,29.9,17.2,30,21.7
		c0,1.4,0.4,52.7,0.4,54.9c-0.2,7-1.3,14.7-4.6,15.6c0.5,0,1.1,0,1.4-0.2c0,0,0,0,0.2,0c0.2,0,0.4,0,0.4,0c1.3-0.2,2.9-0.5,4.8-1.2
		c1.9-0.7,4-1.8,6.3-3.4c2.9-2.3,5.1-5,6.9-7.5c0.5-0.8,1-1.5,1.5-2.2c0.3-0.5,0.3-0.9,0.3-0.9c1.1-1.8,1.8-3.4,2.1-4.5
		C49.7,72.1,49.9,71.9,49.9,71.8z M68.8,35.8c0.7-1.4,2.3-2.3,3.9-2.3c2.3,0,4.3,1.8,4.5,4.1c0,0.2,0,0.4,0,0.4
		c0,0.6-0.1,1.2-0.4,1.8c-0.7,1.6-2.2,2.7-4.1,2.7c-2,0-3.6-1.2-4.2-3c-0.2-0.5-0.3-1-0.3-1.5C68.3,37.3,68.5,36.5,68.8,35.8z
		 M56.8,35.3c0.9-1.1,2.1-1.8,3.6-1.8c1.4,0,2.5,0.5,3.4,1.6c0.7,0.7,1.1,1.8,1.1,2.9c0,0.7-0.2,1.4-0.5,2c-0.7,1.5-2.2,2.5-4,2.5
		c-1.1,0-2-0.4-2.8-1c-1-0.8-1.7-2.1-1.7-3.5C56,36.9,56.3,36,56.8,35.3z M43.6,38c0-2.5,2-4.5,4.5-4.5c2.1,0,3.9,1.4,4.3,3.4
		c0.2,0.4,0.2,0.7,0.2,1.1c0,2.5-2,4.5-4.5,4.5C45.6,42.4,43.6,40.5,43.6,38z"/>
</g>
</svg>
