<?xml version="1.0" encoding="utf-8"?>
<!-- Generator: Adobe Illustrator 24.1.1, SVG Export Plug-In . SVG Version: 6.00 Build 0)  -->
<svg version="1.1" id="Camada_1" xmlns="http://www.w3.org/2000/svg" xmlns:xlink="http://www.w3.org/1999/xlink" x="0px" y="0px"
	 viewBox="0 0 208 108.8" style="enable-background:new 0 0 208 108.8;" xml:space="preserve">
<style type="text/css">
	.st0{fill:#3C3C3B;}
	.st1{fill:#48A74B;}
	.st2{fill:#43A2D5;}
	.st3{font-family:'ArialRoundedMTBold';}
	.st4{font-size:12px;}
</style>
<g>
	<g>
		<g>
			<path class="st0" d="M61.7,15.8c0-1.6-0.9-2.8-2.6-3.7c-1.6-0.8-3.2-1.3-4.9-1.3c-1.7,0-3.2,0.5-4.2,1.3c-0.6,0.5-1.2,1.2-1.9,2
				c-0.2-0.8-0.4-1.4-0.8-1.9c-0.7-1-1.8-1.5-3.3-1.5c-2,0-4.4,1-4.4,5.8v20.9c0,1.7,0.4,3,1.2,3.9c0.8,0.9,1.9,1.4,3.2,1.4
				c1.3,0,2.4-0.5,3.2-1.4c0.8-0.9,1.3-2.2,1.3-3.9v-6.3c0-2.2,0.1-4.1,0.2-5.7c0.1-1.5,0.4-2.8,0.8-3.9c0.3-1,0.8-1.8,1.4-2.3
				c1-0.8,2.6-1,4.8-0.2c1.5,0.5,1.9,0.5,2.2,0.5c0.9,0,1.8-0.4,2.5-1.1C61.3,17.9,61.7,17,61.7,15.8z"/>
			<path class="st0" d="M89.6,28.4c1.3-0.7,2-2.1,2-4.3c0-2.1-0.6-4.3-1.6-6.3c-1.1-2.1-2.8-3.8-5-5.1c-2.2-1.3-4.9-2-7.9-2
				c-2.3,0-4.5,0.4-6.4,1.1c-1.9,0.8-3.6,1.9-4.9,3.3c-1.3,1.4-2.3,3.1-3,5.1c-0.7,2-1,4.1-1,6.4c0,4.9,1.4,8.8,4.2,11.7
				c2.8,2.9,6.7,4.3,11.7,4.3c2.2,0,4.1-0.3,5.8-0.9c1.7-0.6,3.1-1.3,4.2-2.2c1.1-0.9,2-1.8,2.6-2.8c0.6-1,0.9-1.9,0.9-2.7
				c0-1-0.3-1.8-1-2.3c-0.6-0.5-1.4-0.8-2.3-0.8c-0.9,0-1.6,0.2-2.1,0.7c-0.9,0.9-1.7,1.6-2.3,2.1c-0.6,0.5-1.2,1-1.8,1.4
				c-0.6,0.4-1.3,0.7-2,0.9c-0.7,0.2-1.4,0.3-2.3,0.3c-1.2,0-2.3-0.3-3.3-0.9c-1-0.6-1.8-1.5-2.4-2.7c-0.5-1-0.8-2.2-0.9-3.5h13.9
				C86.8,29.3,88.4,29,89.6,28.4z M76.8,17.4c1.8,0,3.2,0.6,4.2,1.7c1,1,1.6,2.6,1.8,4.6h-12c0.3-2,0.9-3.5,1.9-4.6
				C73.8,18,75.1,17.4,76.8,17.4z"/>
			<path class="st0" d="M118.6,28.8c-0.9,0-1.8,0.3-2.4,0.9c-0.6,0.5-1.1,1.3-1.6,2.1c-0.8,1.3-1.6,2.3-2.6,3
				c-1,0.6-2.1,0.9-3.5,0.9c-1,0-1.9-0.2-2.8-0.6c-0.8-0.4-1.5-1-2.1-1.7c-0.6-0.8-1.1-1.7-1.4-2.8c-0.3-1.1-0.5-2.4-0.5-3.7
				c0-2.8,0.6-5.1,1.9-6.7c1.2-1.6,2.8-2.3,4.8-2.3c1.4,0,2.5,0.3,3.4,0.9c0.9,0.6,1.8,1.6,2.7,3c0.6,0.8,1.1,1.3,1.5,1.7
				c0.5,0.4,1.2,0.6,2,0.6c1.1,0,2.1-0.4,2.9-1.1c0.8-0.8,1.2-1.7,1.2-2.8c0-1-0.3-2.1-1-3.2c-0.6-1.1-1.6-2.1-2.8-3.1
				c-1.2-0.9-2.6-1.7-4.3-2.3c-1.7-0.6-3.6-0.9-5.6-0.9c-3.2,0-6.1,0.7-8.4,2c-2.4,1.4-4.2,3.3-5.4,5.8c-1.2,2.4-1.9,5.3-1.9,8.5
				c0,4.7,1.4,8.5,4.1,11.4c2.7,2.8,6.5,4.3,11.4,4.3c2.2,0,4.3-0.3,6.1-0.9c1.8-0.6,3.3-1.4,4.6-2.4c1.2-1,2.1-2.1,2.7-3.2
				c0.6-1.2,0.9-2.3,0.9-3.3c0-1-0.4-1.9-1.1-2.7C120.7,29.2,119.8,28.8,118.6,28.8z"/>
			<path class="st0" d="M129.8,10.8c-1.3,0-2.4,0.5-3.2,1.4c-0.8,0.9-1.2,2.2-1.2,3.8v21.5c0,1.6,0.4,2.9,1.2,3.8
				c0.8,0.9,1.9,1.4,3.2,1.4c1.3,0,2.4-0.5,3.2-1.4c0.8-0.9,1.3-2.2,1.3-3.9V15.8c0-1.5-0.4-2.7-1.3-3.6
				C132.2,11.3,131.1,10.8,129.8,10.8z"/>
			<path class="st0" d="M129.9,0c-1.2,0-2.2,0.4-3.1,1.2c-0.9,0.8-1.4,1.9-1.4,3.1c0,1.4,0.5,2.5,1.4,3.2c0.9,0.8,1.9,1.1,3.1,1.1
				c1.2,0,2.2-0.4,3.1-1.2c0.9-0.8,1.3-1.9,1.3-3.2c0-1.4-0.5-2.5-1.4-3.3C132.1,0.4,131,0,129.9,0z"/>
			<path class="st0" d="M159.1,25.1c-1.5-0.8-3.5-1.5-5.9-2.1c-1.9-0.5-3.5-0.9-4.6-1.2c-1-0.3-1.9-0.7-2.4-1.1
				c-0.5-0.4-0.7-0.8-0.7-1.4c0-0.4,0.1-1,1-1.6c0.8-0.5,1.8-0.8,3-0.8c1.2,0,2.1,0.2,2.8,0.6c0.7,0.4,1.3,0.9,1.8,1.6
				c0.7,0.9,1.4,1.6,2,2.1c0.7,0.5,1.5,0.8,2.4,0.8c1.2,0,2.2-0.3,2.9-1c0.7-0.7,1.1-1.6,1.1-2.6c0-0.9-0.3-1.9-0.9-2.8
				c-0.6-0.9-1.5-1.7-2.6-2.5c-1.1-0.7-2.5-1.3-4.1-1.7c-1.6-0.4-3.4-0.6-5.4-0.6c-2.6,0-4.8,0.4-6.6,1.3c-1.9,0.8-3.3,2-4.3,3.4
				c-1,1.4-1.5,3-1.5,4.6c0,1.8,0.5,3.4,1.6,4.7c1,1.2,2.4,2.2,4.1,3c1.6,0.7,3.8,1.4,6.4,2.1c2.2,0.5,3.8,1.1,4.7,1.6
				c0.8,0.5,1.2,1.2,1.2,2.3c0,0.6-0.4,1.2-1.1,1.7c-0.8,0.6-1.9,0.9-3.3,0.9c-1.7,0-3.1-0.3-4-0.9c-1-0.6-1.8-1.5-2.5-2.7
				c-0.4-0.8-0.9-1.4-1.3-1.8c-0.6-0.5-1.3-0.8-2.3-0.8c-1.1,0-2,0.4-2.7,1.1c-0.7,0.7-1.1,1.6-1.1,2.6c0,1.4,0.5,2.8,1.5,4.1
				c1,1.3,2.5,2.4,4.5,3.3c2,0.9,4.4,1.3,7.2,1.3c2.9,0,5.4-0.4,7.4-1.2c2.1-0.8,3.7-2,4.8-3.6c1.1-1.6,1.6-3.5,1.6-5.7
				c0-1.5-0.4-2.9-1.3-4.1C161.9,27,160.7,26,159.1,25.1z"/>
			<path class="st0" d="M193.2,28.4c1.3-0.7,2-2.1,2-4.3c0-2.1-0.6-4.3-1.6-6.3c-1.1-2.1-2.8-3.8-5-5.1c-2.2-1.3-4.9-2-7.9-2
				c-2.3,0-4.5,0.4-6.4,1.1c-1.9,0.8-3.6,1.9-4.9,3.3c-1.3,1.4-2.3,3.1-3,5.1c-0.7,2-1,4.1-1,6.4c0,4.9,1.4,8.8,4.2,11.7
				c2.8,2.9,6.7,4.3,11.7,4.3c2.2,0,4.1-0.3,5.8-0.9c1.7-0.6,3.1-1.3,4.2-2.2c1.1-0.9,2-1.8,2.6-2.8c0.6-1,0.9-1.9,0.9-2.7
				c0-1-0.3-1.8-1-2.3c-0.6-0.5-1.4-0.8-2.3-0.8c-0.9,0-1.6,0.2-2.1,0.7c-0.9,0.9-1.7,1.6-2.3,2.1c-0.6,0.5-1.2,1-1.8,1.4
				c-0.6,0.4-1.3,0.7-2,0.9c-0.7,0.2-1.4,0.3-2.3,0.3c-1.2,0-2.3-0.3-3.3-0.9c-1-0.6-1.8-1.5-2.4-2.7c-0.5-1-0.8-2.2-0.9-3.5h13.9
				C190.4,29.3,192,29,193.2,28.4z M180.4,17.4c1.8,0,3.2,0.6,4.2,1.7c1,1,1.6,2.6,1.8,4.6h-12c0.3-2,0.9-3.5,1.9-4.6
				C177.4,18,178.7,17.4,180.4,17.4z"/>
			<path class="st0" d="M202.3,10.8c-1.3,0-2.4,0.5-3.2,1.4c-0.8,0.9-1.2,2.2-1.2,3.8v21.5c0,1.6,0.4,2.9,1.2,3.8
				c0.8,0.9,1.9,1.4,3.2,1.4c1.3,0,2.4-0.5,3.2-1.4c0.8-0.9,1.3-2.2,1.3-3.9V15.8c0-1.5-0.4-2.7-1.3-3.6
				C204.6,11.3,203.6,10.8,202.3,10.8z"/>
			<path class="st0" d="M202.4,8.7c1.2,0,2.2-0.4,3.1-1.2c0.9-0.8,1.3-1.9,1.3-3.2c0-1.4-0.5-2.5-1.4-3.3c-0.9-0.7-1.9-1.1-3-1.1
				c-1.2,0-2.2,0.4-3.1,1.2c-0.9,0.8-1.4,1.9-1.4,3.1c0,1.4,0.5,2.5,1.4,3.2C200.1,8.4,201.1,8.7,202.4,8.7z"/>
		</g>
		<g>
			<g>
				<path class="st0" d="M50.5,75.4c-0.9,0-1.8,0.3-2.4,0.9c-0.6,0.5-1.1,1.3-1.6,2.1c-0.8,1.3-1.6,2.3-2.6,3
					c-1,0.6-2.1,0.9-3.5,0.9c-1,0-1.9-0.2-2.8-0.6c-0.8-0.4-1.5-1-2.1-1.7c-0.6-0.8-1.1-1.7-1.4-2.8c-0.3-1.1-0.5-2.4-0.5-3.7
					c0-2.8,0.6-5.1,1.9-6.7c1.2-1.6,2.8-2.3,4.8-2.3c1.4,0,2.5,0.3,3.4,0.9c0.9,0.6,1.8,1.6,2.7,3c0.6,0.8,1.1,1.3,1.5,1.7
					c0.5,0.4,1.2,0.6,2,0.6c1.1,0,2.1-0.4,2.9-1.1c0.8-0.8,1.2-1.7,1.2-2.8c0-1-0.3-2.1-1-3.2c-0.6-1.1-1.6-2.1-2.8-3.1
					c-1.2-0.9-2.6-1.7-4.3-2.3c-1.7-0.6-3.6-0.9-5.6-0.9c-3.2,0-6.1,0.7-8.4,2c-2.4,1.4-4.2,3.3-5.4,5.8c-1.2,2.4-1.9,5.3-1.9,8.5
					c0,4.7,1.4,8.5,4.1,11.4c2.7,2.8,6.5,4.3,11.4,4.3c2.2,0,4.3-0.3,6.1-0.9c1.8-0.6,3.3-1.4,4.6-2.4c1.2-1,2.1-2.1,2.7-3.2
					c0.6-1.2,0.9-2.3,0.9-3.3c0-1-0.4-1.9-1.1-2.7C52.6,75.9,51.7,75.4,50.5,75.4z"/>
				<path class="st0" d="M82.4,62.6c-0.9-1.6-2.2-2.9-3.7-3.8c-1.6-0.9-3.4-1.3-5.4-1.3c-1.3,0-2.6,0.2-3.7,0.5
					c-1.2,0.3-2.3,0.9-3.2,1.5c-0.6,0.4-1.1,0.9-1.7,1.4v-9.4c0-1.7-0.4-3-1.2-3.9c-0.8-0.9-1.9-1.4-3.3-1.4c-1.4,0-2.5,0.5-3.3,1.4
					c-0.8,0.9-1.1,2.2-1.1,3.9v32.5c0,4.3,2.4,5.3,4.4,5.3c1.4,0,2.5-0.5,3.3-1.4c0.8-0.9,1.2-2.2,1.2-3.8v-9.9
					c0-2.8,0.2-4.7,0.6-5.7c0.5-1.2,1.2-2.1,2.2-2.8c1-0.7,2-1,3.2-1c1.7,0,2.9,0.5,3.5,1.6c0.7,1.2,1,2.9,1,5.2v12.7
					c0,4.3,2.4,5.3,4.4,5.3c1.3,0,2.4-0.5,3.3-1.4c0.8-0.9,1.2-2.2,1.2-3.9V69.7c0-1.5-0.1-2.8-0.3-3.9C83.4,64.6,83,63.5,82.4,62.6
					z"/>
				<path class="st0" d="M158.1,58.8c-1.6-0.9-3.5-1.3-5.6-1.3c-1.9,0-3.6,0.4-5.1,1.2c-1.3,0.7-2.5,1.6-3.7,2.9
					c-0.9-1.2-1.9-2.2-3.1-2.9c-1.5-0.8-3.2-1.2-5.2-1.2c-1.9,0-3.7,0.4-5.3,1.2c-1.1,0.6-2.2,1.3-3.2,2.4c-0.2-0.9-0.5-1.7-1.2-2.3
					c-0.8-0.8-1.8-1.2-3.1-1.2c-1.3,0-2.3,0.4-3.1,1.3c-0.8,0.9-1.2,2.1-1.2,3.7V84c0,1.7,0.4,3.1,1.3,4c0.9,0.9,2,1.4,3.3,1.4
					c1.4,0,2.5-0.5,3.3-1.4c0.8-0.9,1.2-2.3,1.2-4V73.8c0-3,0.4-5.4,1.1-7c0.7-1.4,2-2.1,4.2-2.1c1,0,1.7,0.3,2.2,0.8
					c0.5,0.6,0.8,1.3,0.9,2.2c0.1,1,0.2,2.5,0.2,4.3v12c0,1.7,0.4,3.1,1.2,4c0.8,0.9,1.9,1.4,3.3,1.4c1.4,0,2.5-0.5,3.3-1.4
					c0.8-0.9,1.3-2.3,1.3-4V74c0-3.1,0.3-5.3,0.8-6.4c0.4-0.9,1-1.6,1.8-2.1c0.8-0.5,1.6-0.8,2.4-0.8c1,0,1.8,0.2,2.2,0.8
					c0.5,0.6,0.8,1.2,0.9,2.1c0.1,0.9,0.2,2.2,0.2,3.8V84c0,1.7,0.4,3.1,1.3,4c0.9,0.9,2,1.4,3.3,1.4c1.4,0,2.5-0.5,3.3-1.4
					c0.8-0.9,1.3-2.3,1.3-4V69.3c0-3-0.3-5.2-1-6.7C160.9,61,159.7,59.7,158.1,58.8z"/>
				<path class="st0" d="M192.9,75.1c1.3-0.7,2-2.1,2-4.3c0-2.1-0.6-4.3-1.6-6.3c-1.1-2.1-2.8-3.8-5-5.1c-2.2-1.3-4.9-2-7.9-2
					c-2.3,0-4.5,0.4-6.4,1.1c-1.9,0.8-3.6,1.9-4.9,3.3c-1.3,1.4-2.3,3.1-3,5.1c-0.7,2-1,4.1-1,6.4c0,4.9,1.4,8.8,4.2,11.7
					c2.8,2.9,6.7,4.3,11.7,4.3c2.2,0,4.1-0.3,5.8-0.9c1.7-0.6,3.1-1.3,4.2-2.2c1.1-0.9,2-1.8,2.6-2.8c0.6-1,0.9-1.9,0.9-2.7
					c0-1-0.3-1.8-1-2.3c-0.6-0.5-1.4-0.8-2.3-0.8c-0.9,0-1.6,0.2-2.1,0.7c-0.9,0.9-1.7,1.6-2.3,2.1c-0.6,0.5-1.2,1-1.8,1.4
					c-0.6,0.4-1.3,0.7-2,0.9c-0.7,0.2-1.4,0.3-2.3,0.3c-1.2,0-2.3-0.3-3.3-0.9c-1-0.6-1.8-1.5-2.4-2.7c-0.5-1-0.8-2.2-0.9-3.5H188
					C190.1,76,191.7,75.7,192.9,75.1z M180.1,64c1.8,0,3.2,0.6,4.2,1.7c1,1,1.6,2.6,1.8,4.6h-12c0.3-2,0.9-3.5,1.9-4.6
					C177.1,64.6,178.5,64,180.1,64z"/>
				<path class="st0" d="M202.1,55.4c1.2,0,2.2-0.4,3.1-1.2c0.9-0.8,1.3-1.9,1.3-3.2c0-1.4-0.5-2.5-1.4-3.3c-0.9-0.7-1.9-1.1-3-1.1
					c-1.2,0-2.2,0.4-3.1,1.2c-0.9,0.8-1.4,1.9-1.4,3.1c0,1.4,0.5,2.5,1.4,3.2C199.8,55,200.9,55.4,202.1,55.4z"/>
				<path class="st0" d="M202,57.5c-1.3,0-2.4,0.5-3.2,1.4c-0.8,0.9-1.2,2.2-1.2,3.8v21.5c0,1.6,0.4,2.9,1.2,3.8
					c0.8,0.9,1.9,1.4,3.2,1.4c1.3,0,2.4-0.5,3.2-1.4c0.8-0.9,1.3-2.2,1.3-3.9V62.4c0-1.5-0.4-2.7-1.3-3.6
					C204.4,57.9,203.3,57.5,202,57.5z"/>
			</g>
		</g>
		<path class="st1" d="M2.3,56.2c0.3,0,0.6,0,0.8-0.1C2.6,56.2,2.3,56.2,2.3,56.2C2.3,56.2,2.3,56.2,2.3,56.2z"/>
		<path class="st1" d="M22.5,9C22.5,9,22.5,9,22.5,9c-0.6,0-1,0-1,0l-2.6,0L8.2,8.8c-5.2,0.4-5.8,5.5-5.7,8c0,0.8,0.2,29.5,0.2,30.7
			c-0.1,3.9-0.7,8.2-2.6,8.7c0.3,0,0.6,0,0.8-0.1c0,0,0,0,0.1,0c0.1,0,0.2,0,0.2,0c0,0,0,0,0,0c1.4-0.2,3.7-0.8,6.2-2.6
			c2.1-1.7,3.6-3.7,4.7-5.4c0.2-0.3,0.2-0.5,0.2-0.5c0,0,0,0,0,0c0.6-1,1-1.9,1.2-2.5c0-0.1,0.1-0.2,0.1-0.3
			c0.1-0.3,0.3-0.7,0.4-1.1c0,0,0-0.1,0-0.1c0.4,0,0.8,0,1.1,0c1.7,0,3.5,0,5.3-0.2c2.4-0.2,4.8-0.7,7-1.7c0,0,0,0,0.1,0
			c2.6-1.3,4.8-3.4,6.4-5.9c0,0,0,0,0-0.1c1.7-3.1,2.6-6.7,2.7-10.2C36.5,17,30.4,10.1,22.5,9z M12.6,28.4
			C12.6,28.4,12.6,28.4,12.6,28.4c-1.4,0-2.5-1.1-2.5-2.5c0-1.4,1.1-2.5,2.5-2.5c1.2,0,2.2,0.8,2.4,1.9c0.1,0.2,0.1,0.4,0.1,0.6
			C15.1,27.3,14,28.4,12.6,28.4z M19.5,28.4c-1.4,0-2.5-1.1-2.5-2.5c0-0.6,0.2-1.1,0.5-1.5c0.5-0.6,1.2-1,2-1c0.8,0,1.4,0.3,1.9,0.9
			c0.4,0.4,0.6,1,0.6,1.6C22,27.3,20.9,28.4,19.5,28.4z M26.4,28.4c-1.4,0-2.5-1.1-2.5-2.5c0-0.4,0.1-0.8,0.3-1.2v0
			c0.4-0.8,1.3-1.3,2.2-1.3c1.3,0,2.4,1,2.5,2.3c0,0.1,0,0.2,0,0.2C28.9,27.3,27.8,28.4,26.4,28.4z"/>
		<path class="st2" d="M114.7,86.7c-0.4-1.5-0.6-3.4-0.5-5.7c0,0,1.3-15.2-3.5-19.3c0,0-4.9-6.7-19-2.6c0,0-4.6,0.7-3.7,4.2
			c0,0,0.5,3.6,4.5,2.5c0,0,7.1-2.4,10.7-0.2c0,0,3.1,2.1,2.3,5.1c-0.8-0.3-1.4-0.8-2.2-1c-4.6-1.2-10.2-1.3-14.2,1.7
			c-0.4,0.3-0.8,0.6-1.1,1c-2.3,2.3-3,6.3-2.1,9.3c0.5,1.7,1.6,3.5,3,4.7c1.9,1.5,4.8,2.2,7.2,2.4c2.6,0.2,5.3-0.3,7.6-1.7
			c0.2-0.1,2-1.2,1.9-1.4c0,0,3.8,9.4,14.5,7.5c0.3-0.1,0.6-0.1,0.9-0.2C121.2,93,116.2,93.3,114.7,86.7z M95.2,79.4
			c-1,0-1.8-0.8-1.8-1.8c0-1,0.8-1.8,1.8-1.8c1,0,1.8,0.8,1.8,1.8C97.1,78.6,96.2,79.4,95.2,79.4z M100.3,79.4c-1,0-1.8-0.8-1.8-1.8
			c0-1,0.8-1.8,1.8-1.8c1,0,1.8,0.8,1.8,1.8C102.2,78.6,101.3,79.4,100.3,79.4z M105.4,79.4c-1,0-1.8-0.8-1.8-1.8
			c0-1,0.8-1.8,1.8-1.8c1,0,1.8,0.8,1.8,1.8C107.2,78.6,106.4,79.4,105.4,79.4z"/>
	</g>
	<text transform="matrix(1 0 0 1 162.7559 106.2237)" class="st3 st4">.com.br</text>
</g>
</svg>
